<svg xmlns="http://www.w3.org/2000/svg" width="45" height="45" viewBox="0 0 45 45">
  <defs>
    <style>
      .cls-1 {
        fill: #ffe853;
      }

      .cls-1, .cls-10, .cls-11, .cls-12, .cls-2, .cls-3, .cls-4, .cls-5, .cls-6, .cls-7, .cls-8, .cls-9 {
        fill-rule: evenodd;
      }

      .cls-2 {
        fill: #e16567;
      }

      .cls-3 {
        fill: #b55e60;
        opacity: 0.4;
      }

      .cls-4 {
        fill: #ffac64;
      }

      .cls-5 {
        fill: #c4a4a5;
      }

      .cls-5, .cls-9 {
        opacity: 0.2;
      }

      .cls-6 {
        fill: #ff7f64;
      }

      .cls-11, .cls-7 {
        fill: #dc595c;
      }

      .cls-7 {
        opacity: 0.6;
      }

      .cls-8 {
        fill: #ffc064;
      }

      .cls-9 {
        fill: #c98485;
      }

      .cls-10 {
        fill: #ff9764;
      }

      .cls-11 {
        opacity: 0.8;
      }

      .cls-12 {
        fill: #ffd55e;
      }
    </style>
  </defs>
  <g>
    <path d="M21.452,0.007 C22.464,0.007 23.283,0.827 23.283,1.838 L23.283,10.992 C23.283,12.004 22.464,12.823 21.452,12.823 C20.441,12.823 19.622,12.004 19.622,10.992 L19.622,1.838 C19.622,0.827 20.441,0.007 21.452,0.007 Z" class="cls-1"/>
    <path d="M22.065,30.115 C23.076,30.115 23.895,30.934 23.895,31.946 L23.895,41.100 C23.895,42.111 23.076,42.931 22.065,42.931 C21.053,42.931 20.234,42.111 20.234,41.100 L20.234,31.946 C20.234,30.934 21.053,30.115 22.065,30.115 Z" class="cls-2"/>
    <path d="M43.526,21.469 C43.526,22.480 42.707,23.300 41.695,23.300 L32.541,23.300 C31.530,23.300 30.710,22.480 30.710,21.469 C30.710,20.458 31.530,19.638 32.541,19.638 L41.695,19.638 C42.707,19.638 43.526,20.458 43.526,21.469 Z" class="cls-3"/>
    <path d="M12.807,21.469 C12.807,22.480 11.987,23.300 10.976,23.300 L1.821,23.300 C0.810,23.300 -0.009,22.480 -0.009,21.469 C-0.009,20.458 0.810,19.638 1.821,19.638 L10.976,19.638 C11.987,19.638 12.807,20.458 12.807,21.469 Z" class="cls-4"/>
    <path d="M32.526,3.085 C33.392,3.607 33.672,4.732 33.150,5.598 L28.426,13.439 C27.905,14.306 26.780,14.585 25.913,14.063 C25.047,13.541 24.768,12.416 25.290,11.550 L30.013,3.709 C30.535,2.842 31.660,2.563 32.526,3.085 Z" class="cls-5"/>
    <path d="M16.991,28.875 C17.858,29.397 18.137,30.522 17.615,31.388 L12.891,39.229 C12.370,40.096 11.245,40.375 10.378,39.853 C9.512,39.331 9.233,38.206 9.755,37.340 L14.478,29.498 C15.000,28.632 16.125,28.353 16.991,28.875 Z" class="cls-6"/>
    <path d="M40.449,32.543 C39.927,33.409 38.802,33.688 37.936,33.166 L30.094,28.443 C29.228,27.921 28.949,26.796 29.470,25.930 C29.992,25.064 31.117,24.785 31.983,25.306 L39.825,30.030 C40.691,30.552 40.970,31.677 40.449,32.543 Z" class="cls-7"/>
    <path d="M14.046,17.008 C13.525,17.874 12.400,18.153 11.534,17.631 L3.692,12.908 C2.826,12.386 2.547,11.261 3.068,10.395 C3.590,9.529 4.715,9.250 5.581,9.771 L13.423,14.495 C14.289,15.017 14.568,16.142 14.046,17.008 Z" class="cls-8"/>
    <path d="M40.847,11.085 C41.336,11.970 41.015,13.084 40.130,13.573 L32.119,18.002 C31.234,18.491 30.120,18.171 29.631,17.286 C29.142,16.401 29.462,15.287 30.347,14.798 L38.359,10.368 C39.244,9.879 40.358,10.200 40.847,11.085 Z" class="cls-9"/>
    <path d="M13.886,25.652 C14.375,26.537 14.055,27.651 13.170,28.140 L5.158,32.569 C4.273,33.059 3.159,32.738 2.670,31.853 C2.181,30.968 2.502,29.854 3.386,29.365 L11.398,24.936 C12.283,24.446 13.397,24.767 13.886,25.652 Z" class="cls-10"/>
    <path d="M32.449,40.251 C31.564,40.741 30.450,40.420 29.961,39.535 L25.531,31.523 C25.042,30.638 25.363,29.524 26.248,29.035 C27.133,28.546 28.247,28.867 28.736,29.752 L33.165,37.763 C33.654,38.648 33.334,39.762 32.449,40.251 Z" class="cls-11"/>
    <path d="M17.269,13.903 C16.384,14.392 15.270,14.071 14.781,13.186 L10.352,5.175 C9.863,4.290 10.183,3.176 11.068,2.687 C11.953,2.197 13.067,2.518 13.556,3.403 L17.986,11.414 C18.475,12.299 18.154,13.413 17.269,13.903 Z" class="cls-12"/>
  </g>
</svg>
